<?xml version="1.0" encoding="UTF-8" standalone="no"?>
<!-- Created with Inkscape (http://www.inkscape.org/) -->

<svg
   width="512"
   height="512"
   viewBox="0 0 135.46666 135.46667"
   version="1.1"
   id="svg29312"
   xmlns="http://www.w3.org/2000/svg"
   xmlns:svg="http://www.w3.org/2000/svg">
  <defs
     id="defs29309" />
  <g
     id="layer1">
    <path
       id="rect1"
       style="fill:#ee3333;fill-opacity:1;stroke-width:19.8438;paint-order:stroke fill markers"
       d="M 0,0 H 135.46666 V 135.46666 H 0 Z" />
  </g>
  <path
     d="m 34.078326,74.638955 q -0.79375,-0.79375 -1.5875,-0.9525 -0.714375,-0.15875 -3.96875,-0.238125 h -2.619375 v -3.65125 h 8.41375 q 8.334375,0 8.651875,0.238125 l 0.396875,0.396875 q 16.589375,43.65625 16.589375,43.73562 6.82625,-17.938745 13.096875,-34.68687 2.38125,-6.35 2.936875,-7.699375 0.555625,-1.349375 0.9525,-1.74625 0.3175,-0.238125 8.651875,-0.238125 h 8.41375 v 3.65125 h -2.619375 q -3.254375,0.07937 -4.1275,0.238125 -0.79375,0.15875 -1.349375,0.9525 v 44.529375 q 0.555625,0.79375 1.349375,0.9525 0.873125,0.15875 4.1275,0.23812 h 2.619375 v 3.65125 h -0.873125 q -1.27,-0.23812 -11.1125,-0.23812 -9.8425,0 -11.1125,0.23812 h -0.873125 v -3.65125 h 2.619375 q 3.254375,-0.0794 3.96875,-0.23812 0.79375,-0.15875 1.5875,-0.9525 V 96.46708 q 0,-6.111875 0,-9.04875 0,-2.936875 0,-6.746875 0,-3.81 0,-5.318125 l -0.07937,-1.508125 q -18.494375,49.053745 -18.811875,49.609375 -0.3175,0.47625 -1.5875,0.47625 -1.27,0 -1.5875,-0.47625 L 37.570826,74.480205 v 1.42875 q -0.07937,1.42875 -0.07937,5.000625 0,3.571875 0,6.35 0,2.778125 0,8.493125 l 0.07937,21.431245 q 0.9525,2.8575 6.746875,3.175 h 1.349375 v 3.65125 h -0.714375 q -1.031875,-0.23812 -9.128125,-0.23812 -8.255,0 -9.286875,0.23812 h -0.635 v -3.65125 h 1.349375 q 5.3975,-0.3175 6.588125,-2.69875 l 0.238125,-0.47625 z m 85.724984,24.28875 q 0,-3.65125 -2.2225,-5.715 -2.2225,-2.06375 -6.11188,-2.06375 -7.3025,0 -7.3025,5.159375 0,1.031875 0.15875,1.349375 0.71438,1.904997 2.46063,2.778125 1.74625,0.79375 5.3975,1.50812 4.52437,0.79375 6.19125,1.74625 5.00062,2.38125 6.42937,7.85813 0.0794,0.47625 0.0794,1.905 0,5.63562 -3.41313,8.49312 -3.33375,2.8575 -9.36625,2.8575 -4.7625,0 -8.255,-2.8575 l -0.635,0.55563 -0.71437,0.71437 q -0.47625,0.47625 -0.9525,0.87313 l -0.87313,0.79375 h -0.635 q -0.555621,0 -1.031871,-0.47625 v -6.27063 q 0,-5.08 0,-5.87375 0.07937,-0.87312 0.396875,-1.03187 0.15875,-0.0794 1.269996,-0.0794 1.03188,0 1.19063,0.15875 0.23812,0.15875 0.47625,1.11125 0.635,3.01625 2.06375,5.47688 2.77812,4.04812 7.69937,4.04812 7.69938,0 7.69938,-6.19125 0,-2.30187 -1.42875,-3.73062 -1.27,-1.50813 -3.33375,-2.14313 -1.34938,-0.3175 -3.81,-0.87312 -4.445,-0.87313 -6.0325,-1.66688 -5.238751,-2.46062 -6.111876,-7.381868 -0.07937,-0.3175 -0.07937,-1.190627 0,-9.128125 11.191876,-10.239375 0.3175,-0.15875 1.905,0 3.175,0 5.55625,1.190625 l 1.19063,0.635 0.71437,-0.555625 q 1.03188,-0.873125 1.74625,-1.349375 h 0.635 q 0.55563,0 1.03188,0.47625 v 10.477497 l -0.47625,0.47625 h -2.2225 q -0.47625,-0.47625 -0.47625,-0.952497 z"
     id="text1"
     style="font-size:79.375px;font-family:KaTeX_Main;-inkscape-font-specification:KaTeX_Main;text-align:center;text-anchor:middle;fill:#ebebeb;stroke-width:19.8438;paint-order:stroke fill markers"
     aria-label="Ms" />
</svg>
